<?xml version="1.0" standalone="no"?>
<!DOCTYPE svg PUBLIC "-//W3C//DTD SVG 20010904//EN"
 "http://www.w3.org/TR/2001/REC-SVG-20010904/DTD/svg10.dtd">
<svg version="1.0" xmlns="http://www.w3.org/2000/svg"
 width="144.000000pt" height="144.000000pt" viewBox="0 0 144.000000 144.000000"
 preserveAspectRatio="xMidYMid meet">
<metadata>
Created by potrace 1.14, written by Peter Selinger 2001-2017
</metadata>
<g transform="translate(0.000000,144.000000) scale(0.100000,-0.100000)"
fill="#000000" stroke="none">
<path d="M918 1145 c-1 -1 -25 -6 -53 -10 -75 -10 -172 -61 -232 -122 -173
-177 -164 -457 21 -620 143 -126 361 -142 516 -38 206 138 256 409 114 608
-21 29 -45 58 -55 65 -10 7 -24 18 -31 25 -41 39 -127 75 -201 83 -28 3 -57 7
-64 9 -6 2 -13 2 -15 0z m130 -176 c38 -17 143 -112 140 -128 -1 -3 4 -19 11
-36 28 -67 17 -171 -24 -235 -118 -184 -387 -176 -483 15 -65 129 -34 259 84
355 61 50 191 63 272 29z"/>
<path d="M85 1126 c-2 -6 -3 -198 -2 -426 l2 -415 71 -3 72 -3 0 426 c1 234
-2 426 -6 426 -46 8 -134 5 -137 -5z"/>
</g>
</svg>
